<svg width="32" height="32" viewBox="0 0 32 32" fill="none" xmlns="http://www.w3.org/2000/svg">
<rect x="0.5" y="0.5" width="31" height="31" rx="6.5" fill="white" stroke="#DFDFDF"/>
<path d="M21.6157 11.756L21.6151 11.7555C21.2762 11.4258 20.8764 11.1636 20.4372 10.9833L20.4363 10.9829C19.9805 10.7951 19.4915 10.6989 18.9977 10.7L18.9961 10.7C18.3013 10.7 17.625 10.8888 17.0384 11.2439L17.0383 11.2439C16.898 11.3288 16.7652 11.4218 16.6397 11.5228L16.2008 11.876L15.7619 11.5228C15.6365 11.4218 15.5037 11.3288 15.3633 11.2439L15.3633 11.2439C14.7766 10.8888 14.1003 10.7 13.4055 10.7C12.904 10.7 12.4213 10.795 11.9654 10.9829L11.9646 10.9833C11.5237 11.1644 11.1273 11.4243 10.7863 11.7557L10.7854 11.7566L10.7854 11.7566C10.4478 12.0834 10.1784 12.4725 9.99224 12.9016L21.6157 11.756ZM21.6157 11.756C21.9532 12.0836 22.2228 12.473 22.4097 12.9023C22.6032 13.3488 22.7014 13.8204 22.7 14.3064V14.3084C22.7 14.7626 22.6065 15.2512 22.4084 15.7652L22.4078 15.7668M21.6157 11.756L22.4078 15.7668M12.8466 19.5131L12.8466 19.5132C13.5957 20.1996 14.344 20.7823 14.9142 21.1988C15.1987 21.4066 15.4375 21.5721 15.6082 21.6874C15.6935 21.745 15.7615 21.7899 15.8095 21.8212C15.8524 21.8492 15.8758 21.864 15.8811 21.8674C15.8821 21.868 15.8824 21.8682 15.8822 21.8681L15.8933 21.8748L15.8932 21.8749L16.2 22.0701L16.5068 21.8749L16.5069 21.8748C16.5581 21.8423 18.0489 20.8902 19.5534 19.5131H12.8466ZM12.8466 19.5131C11.942 18.6845 11.23 17.8819 10.7217 17.1299M12.8466 19.5131L10.7217 17.1299M22.4078 15.7668C22.2439 16.1953 21.9996 16.654 21.6783 17.1299M22.4078 15.7668L21.6783 17.1299M10.7217 17.1299C10.4013 16.6554 10.1579 16.1961 9.99154 15.7652L10.7217 17.1299ZM21.6783 17.1299C21.17 17.8818 20.4581 18.6844 19.5536 19.5129L21.6783 17.1299ZM9.7 14.3084C9.7 13.8208 9.79852 13.3483 9.99222 12.9017L9.99152 15.7651C9.79343 15.2512 9.7 14.7626 9.7 14.3084Z" stroke="#DFDFDF" stroke-width="1.4"/>
</svg>
